HIERARCHY
ROOT Hips
{
	OFFSET 0.000000 35.082581 0.000000
	CHANNELS 6 Xposition Yposition Zposition Xrotation Yrotation Zrotation 
	JOINT Spine
	{
		OFFSET 0.000000 6.876099 0.125700
		CHANNELS 3 Xrotation Yrotation Zrotation
		JOINT Spine1
		{
			OFFSET 0.000000 5.730043 0.104720
			CHANNELS 3 Xrotation Yrotation Zrotation
			JOINT Spine1_split
			{
				OFFSET 0.000000 5.730043 0.104720
				CHANNELS 3 Xrotation Yrotation Zrotation
				JOINT Spine2
				{
					OFFSET 0.000000 5.730043 0.104720
					CHANNELS 3 Xrotation Yrotation Zrotation
					JOINT Neck
					{
						OFFSET 0.000000 10.314075 0.188496
						CHANNELS 3 Xrotation Yrotation Zrotation
						JOINT Head
						{
							OFFSET 0.000000 7.643700 -2.377400
							CHANNELS 3 Xrotation Yrotation Zrotation
							JOINT HeadTop_End
							{
								OFFSET 0.000000 43.788605 -13.619600
								CHANNELS 3 Xrotation Yrotation Zrotation
								End Site
								{
									OFFSET 0.000000 0.000000 0.000000
								}
							}
						}
					}
					JOINT LeftShoulder
					{
						OFFSET 2.196100 4.412489 0.087492
						CHANNELS 3 Xrotation Yrotation Zrotation
						JOINT LeftShoulder_split
						{
							OFFSET 2.196100 4.412489 0.087492
							CHANNELS 3 Xrotation Yrotation Zrotation
							JOINT LeftArm
							{
								OFFSET 8.771219 -2.981674 -0.026999
								CHANNELS 3 Xrotation Yrotation Zrotation
								JOINT LeftForeArm
								{
									OFFSET 8.512804 0.000000 -0.000000
									CHANNELS 3 Xrotation Yrotation Zrotation
									JOINT LeftHand
									{
										OFFSET 18.484802 0.000000 -0.000000
										CHANNELS 3 Xrotation Yrotation Zrotation
										JOINT LeftHandThumb1
										{
											OFFSET 2.499420 -1.158070 2.653252
											CHANNELS 3 Xrotation Yrotation Zrotation
											JOINT LeftHandThumb2
											{
												OFFSET 2.370079 -1.368366 1.368366
												CHANNELS 3 Xrotation Yrotation Zrotation
												JOINT LeftHandThumb3
												{
													OFFSET 2.676727 -1.545410 1.545409
													CHANNELS 3 Xrotation Yrotation Zrotation
													JOINT LeftHandThumb4
													{
														OFFSET 1.692226 -0.977005 0.977007
														CHANNELS 3 Xrotation Yrotation Zrotation
														End Site
														{
															OFFSET 0.000000 0.000000 0.000000
														}
													}
												}
											}
										}
										JOINT LeftHandIndex1
										{
											OFFSET 7.924831 -0.457527 2.345128
											CHANNELS 3 Xrotation Yrotation Zrotation
											JOINT LeftHandIndex2
											{
												OFFSET 3.643303 0.000000 0.000000
												CHANNELS 3 Xrotation Yrotation Zrotation
												JOINT LeftHandIndex3
												{
													OFFSET 3.810799 0.000000 0.000000
													CHANNELS 3 Xrotation Yrotation Zrotation
													JOINT LeftHandIndex4
													{
														OFFSET 2.403702 0.000000 0.000000
														CHANNELS 3 Xrotation Yrotation Zrotation
														End Site
														{
															OFFSET 0.000000 0.000000 0.000000
														}
													}
												}
											}
										}
										JOINT LeftHandMiddle1
										{
											OFFSET 8.563995 0.000000 -0.000000
											CHANNELS 3 Xrotation Yrotation Zrotation
											JOINT LeftHandMiddle2
											{
												OFFSET 3.861618 0.000000 0.000000
												CHANNELS 3 Xrotation Yrotation Zrotation
												JOINT LeftHandMiddle3
												{
													OFFSET 3.701603 0.000000 0.000000
													CHANNELS 3 Xrotation Yrotation Zrotation
													JOINT LeftHandMiddle4
													{
														OFFSET 2.322544 0.000000 0.000000
														CHANNELS 3 Xrotation Yrotation Zrotation
														End Site
														{
															OFFSET 0.000000 0.000000 0.000000
														}
													}
												}
											}
										}
										JOINT LeftHandRing1
										{
											OFFSET 8.426460 -0.424637 -3.286992
											CHANNELS 3 Xrotation Yrotation Zrotation
											JOINT LeftHandRing2
											{
												OFFSET 3.126408 0.000000 0.000000
												CHANNELS 3 Xrotation Yrotation Zrotation
												JOINT LeftHandRing3
												{
													OFFSET 3.085026 0.000000 0.000000
													CHANNELS 3 Xrotation Yrotation Zrotation
													JOINT LeftHandRing4
													{
														OFFSET 1.644005 0.000000 0.000000
														CHANNELS 3 Xrotation Yrotation Zrotation
														End Site
														{
															OFFSET 0.000000 0.000000 0.000000
														}
													}
												}
											}
										}
									}
								}
							}
						}
					}
					JOINT RightShoulder
					{
						OFFSET -2.196100 4.412496 0.070690
						CHANNELS 3 Xrotation Yrotation Zrotation
						JOINT RightShoulder_split
						{
							OFFSET -2.196100 4.412496 0.070690
							CHANNELS 3 Xrotation Yrotation Zrotation
							JOINT RightArm
							{
								OFFSET -8.771282 -2.981682 -0.094208
								CHANNELS 3 Xrotation Yrotation Zrotation
								JOINT RightForeArm
								{
									OFFSET -8.494598 0.000000 0.000000
									CHANNELS 3 Xrotation Yrotation Zrotation
									JOINT RightHand
									{
										OFFSET -18.483803 0.000000 0.000001
										CHANNELS 3 Xrotation Yrotation Zrotation
										JOINT RightHandThumb1
										{
											OFFSET -2.527351 -1.008072 2.575253
											CHANNELS 3 Xrotation Yrotation Zrotation
											JOINT RightHandThumb2
											{
												OFFSET -2.321518 -1.340328 1.340329
												CHANNELS 3 Xrotation Yrotation Zrotation
												JOINT RightHandThumb3
												{
													OFFSET -2.657753 -1.534454 1.534455
													CHANNELS 3 Xrotation Yrotation Zrotation
													JOINT RightHandThumb4
													{
														OFFSET -1.807510 -1.043568 1.043567
														CHANNELS 3 Xrotation Yrotation Zrotation
														End Site
														{
															OFFSET 0.000000 0.000000 0.000000
														}
													}
												}
											}
										}
										JOINT RightHandIndex1
										{
											OFFSET -8.811420 0.015533 2.887987
											CHANNELS 3 Xrotation Yrotation Zrotation
											JOINT RightHandIndex2
											{
												OFFSET -3.537502 0.000000 0.000000
												CHANNELS 3 Xrotation Yrotation Zrotation
												JOINT RightHandIndex3
												{
													OFFSET -3.356201 0.000000 0.000000
													CHANNELS 3 Xrotation Yrotation Zrotation
													JOINT RightHandIndex4
													{
														OFFSET -1.933098 0.000000 0.000000
														CHANNELS 3 Xrotation Yrotation Zrotation
														End Site
														{
															OFFSET 0.000000 0.000000 0.000000
														}
													}
												}
											}
										}
										JOINT RightHandMiddle1
										{
											OFFSET -8.178135 0.000000 0.000000
											CHANNELS 3 Xrotation Yrotation Zrotation
											JOINT RightHandMiddle2
											{
												OFFSET -3.901302 0.000000 0.000000
												CHANNELS 3 Xrotation Yrotation Zrotation
												JOINT RightHandMiddle3
												{
													OFFSET -3.909599 0.000000 0.000000
													CHANNELS 3 Xrotation Yrotation Zrotation
													JOINT RightHandMiddle4
													{
														OFFSET -2.376003 0.000000 0.000000
														CHANNELS 3 Xrotation Yrotation Zrotation
														End Site
														{
															OFFSET 0.000000 0.000000 0.000000
														}
													}
												}
											}
										}
										JOINT RightHandRing1
										{
											OFFSET -7.559013 0.014137 -2.865403
											CHANNELS 3 Xrotation Yrotation Zrotation
											JOINT RightHandRing2
											{
												OFFSET -3.449306 0.000000 0.000000
												CHANNELS 3 Xrotation Yrotation Zrotation
												JOINT RightHandRing3
												{
													OFFSET -3.362106 0.000000 0.000000
													CHANNELS 3 Xrotation Yrotation Zrotation
													JOINT RightHandRing4
													{
														OFFSET -2.076401 0.000000 0.000000
														CHANNELS 3 Xrotation Yrotation Zrotation
														End Site
														{
															OFFSET 0.000000 0.000000 0.000000
														}
													}
												}
											}
										}
									}
								}
							}
						}
					}
				}
			}
		}
	}
	JOINT LeftUpLeg
	{
		OFFSET 10.205400 -3.823500 0.155100
		CHANNELS 3 Xrotation Yrotation Zrotation
		JOINT LeftLeg
		{
			OFFSET 0.708757 -12.982077 0.567790
			CHANNELS 3 Xrotation Yrotation Zrotation
			JOINT LeftFoot
			{
				OFFSET -0.708756 -10.717838 -2.184338
				CHANNELS 3 Xrotation Yrotation Zrotation
				JOINT LeftToeBase
				{
					OFFSET 0.108149 -7.191104 7.560241
					CHANNELS 3 Xrotation Yrotation Zrotation
					JOINT LeftToe_End
					{
						OFFSET 0.070230 0.081724 4.490308
						CHANNELS 3 Xrotation Yrotation Zrotation
						End Site
						{
							OFFSET 0.000000 0.000000 0.000000
						}
					}
				}
			}
		}
	}
	JOINT RightUpLeg
	{
		OFFSET -10.205400 -3.823500 0.005500
		CHANNELS 3 Xrotation Yrotation Zrotation
		JOINT RightLeg
		{
			OFFSET -0.708756 -12.982134 0.610632
			CHANNELS 3 Xrotation Yrotation Zrotation
			JOINT RightFoot
			{
				OFFSET 0.708754 -10.717769 -1.945823
				CHANNELS 3 Xrotation Yrotation Zrotation
				JOINT RightToeBase
				{
					OFFSET -0.108140 -7.191069 7.372968
					CHANNELS 3 Xrotation Yrotation Zrotation
					JOINT RightToe_End
					{
						OFFSET -0.070227 0.081735 4.479403
						CHANNELS 3 Xrotation Yrotation Zrotation
						End Site
						{
							OFFSET 0.000000 0.000000 0.000000
						}
					}
				}
			}
		}
	}
}
MOTION
Frames: 4
Frame Time: 0.016667
0.633378 28.598621 -0.651500 9.498703 -61.495745 10.123792 15.067411 -0.446931 -4.264668 5.872806 0.571265 -2.801484 0.000000 0.000000 0.000000 5.868634 0.648866 -2.855441 -3.636310 1.441459 3.747636 -20.003652 54.833127 2.408456 0.000000 0.000000 -0.000000 1.829294 -3.192746 -12.271737 0.000000 0.000000 0.000000 -39.386716 26.350113 -34.912003 0.430049 -46.810148 0.421451 -10.315180 -0.130075 0.363172 40.109893 -15.297173 -0.360469 5.639901 28.097802 11.338788 1.088575 40.896287 22.734032 -0.000004 0.000001 0.000001 6.882260 2.840030 -61.140507 8.247976 7.640062 -89.897871 2.146165 8.173416 -41.827795 -0.000001 0.000002 0.000001 -2.345555 4.688881 -62.655245 8.754157 9.897089 -87.051232 1.995356 4.929279 -37.483364 -0.000002 0.000000 0.000001 -9.042505 10.045630 -60.766199 8.523946 9.508871 -66.892953 6.576521 9.896797 -70.385093 -0.000004 -0.000004 -0.000003 0.631529 7.257366 8.703766 0.000000 0.000000 0.000000 7.936912 -9.680961 53.430808 -22.866912 36.192185 17.964139 -27.375390 10.434892 -17.812418 -2.346140 -6.100499 10.731431 2.364025 -23.806279 -8.771115 -5.012478 13.984870 5.861539 -0.000001 -0.000000 -0.000000 -0.054775 0.532083 0.738707 0.019709 -0.087386 5.078583 -0.003987 -2.004309 -2.834002 0.000001 -0.000001 -0.000002 0.348256 -5.918486 2.583772 1.432627 -4.204237 24.052083 0.133938 1.746521 -5.753026 0.000000 -0.000001 0.000001 1.205835 -11.756064 4.154752 1.794833 -3.771847 26.865434 1.319769 -3.995331 19.486902 -0.000000 0.000000 0.000002 -41.997064 3.737985 34.587173 44.710948 -12.160025 0.011920 -7.405625 0.862329 -25.257293 -1.836443 -0.000620 -0.000033 -0.000000 0.000000 -0.000000 -27.932154 -15.141247 -45.129628 44.470272 11.514591 -2.760091 -21.028593 -6.256160 32.366067 -0.001645 -0.000369 0.000017 0.000000 0.000000 -0.000000 
0.661312 28.600323 -0.662136 8.469560 -61.785543 8.943310 14.988915 -0.440830 -4.255032 5.836663 0.551932 -2.747393 0.000000 0.000000 0.000000 5.832882 0.628935 -2.797347 -3.515837 1.561329 3.707979 -19.681532 55.042210 2.670128 -0.000000 -0.000000 0.000000 1.808130 -3.150474 -12.416829 0.000000 0.000000 0.000000 -36.014706 24.816581 -34.515152 0.404973 -47.203311 0.405363 -13.147537 -0.038082 2.174998 40.109897 -15.297170 -0.360468 5.639906 28.097805 11.338791 1.088575 40.896290 22.734044 -0.000003 0.000000 -0.000006 6.882264 2.840037 -61.140507 8.247978 7.640055 -89.897871 2.146171 8.173418 -41.827798 0.000002 0.000002 0.000002 -2.345552 4.688885 -62.655251 8.754160 9.897088 -87.051232 1.995357 4.929280 -37.483361 0.000000 0.000001 0.000002 -9.042507 10.045625 -60.766205 8.523949 9.508874 -66.892953 6.576524 9.896796 -70.385086 0.000004 0.000002 0.000002 0.099921 6.784900 8.707351 0.000000 0.000000 0.000000 8.453917 -9.716549 53.843822 -22.782608 36.391398 17.920989 -26.906748 10.541901 -17.555690 -2.229117 -5.644461 10.223977 2.393488 -23.029695 -8.550832 -4.980960 13.814146 5.791558 0.000002 0.000003 0.000002 -0.031257 0.157241 3.080526 0.067412 -0.504277 7.959859 -0.014415 -2.507058 0.490506 0.000000 -0.000001 0.000001 0.376510 -6.306648 4.884746 1.639306 -4.634063 27.021839 0.095050 1.209311 -2.497219 0.000000 -0.000001 -0.000001 1.537610 -11.799183 6.930013 2.077802 -4.286926 30.313329 1.560731 -4.613970 23.337223 -0.000000 0.000000 -0.000000 -41.564450 3.606433 35.107053 45.099579 -11.697498 0.033987 -7.698297 0.325879 -25.443363 -1.836438 -0.000623 -0.000033 -0.000000 0.000004 0.000000 -27.681631 -15.521593 -44.857124 44.241010 13.078000 -2.667724 -20.812596 -7.181403 31.523522 -0.001646 -0.000371 0.000018 0.000000 -0.000000 0.000000 
0.690475 28.604965 -0.664391 7.360383 -62.404201 7.655271 14.765570 -0.412793 -4.199103 5.731445 0.497497 -2.601732 0.000000 0.000000 0.000000 5.728712 0.572364 -2.640770 -3.172948 1.885440 3.612997 -19.015351 55.489963 2.614355 -0.000001 0.000000 -0.000001 1.753328 -3.032287 -12.822557 0.000000 0.000000 0.000000 -32.213843 23.425712 -33.713503 0.377252 -47.042866 0.374144 -16.387652 -0.524151 3.915382 40.109890 -15.297173 -0.360466 5.639907 28.097802 11.338794 1.088571 40.896287 22.734037 0.000000 0.000001 0.000001 6.882261 2.840035 -61.140507 8.247978 7.640054 -89.897871 2.146166 8.173416 -41.827788 0.000000 0.000002 0.000003 -2.345557 4.688883 -62.655245 8.754160 9.897086 -87.051239 1.995361 4.929282 -37.483368 0.000000 0.000005 0.000004 -9.042503 10.045630 -60.766199 8.523945 9.508871 -66.892953 6.576528 9.896801 -70.385093 0.000002 -0.000001 -0.000001 -1.447327 6.161781 8.633030 0.000000 0.000000 0.000000 9.394070 -10.760407 54.077104 -22.572457 37.039481 17.841282 -25.737432 10.731226 -17.031927 -2.096123 -5.152965 9.668790 2.419520 -22.184246 -8.315906 -4.947196 13.628547 5.715587 0.000003 -0.000007 0.000003 0.010651 -0.298149 5.838082 0.148004 -0.978331 11.261735 0.010267 -3.084833 4.314840 0.000001 0.000001 0.000003 0.435417 -6.777991 7.554067 1.917836 -5.120890 30.524313 0.088418 0.602977 1.164888 -0.000000 0.000000 -0.000000 1.924901 -11.837265 10.016857 2.453711 -4.859695 34.305684 1.901183 -5.305985 27.788071 0.000000 -0.000000 -0.000001 -40.963984 3.737036 35.855850 45.593995 -12.063421 0.004238 -8.205027 0.632001 -25.438775 -1.836440 -0.000623 -0.000035 -0.000000 -0.000005 -0.000000 -27.435347 -15.572922 -44.500510 43.988764 12.777582 -2.687586 -20.443692 -6.336565 31.533228 -0.001648 -0.000370 0.000017 0.000000 -0.000000 0.000000 
0.719692 28.605213 -0.666404 6.148882 -63.243194 6.246212 14.415449 -0.366104 -4.105330 5.567090 0.412701 -2.385942 0.000000 0.000000 0.000000 5.566061 0.484791 -2.409087 -2.647252 2.365247 3.479151 -17.989689 56.103232 2.243568 -0.000000 -0.000000 -0.000000 1.672530 -2.851053 -13.443171 0.000000 0.000000 0.000000 -28.045995 22.205739 -32.670475 0.347610 -46.527242 0.330437 -19.859492 -1.433896 5.545890 40.109897 -15.297170 -0.360469 5.639903 28.097802 11.338792 1.088576 40.896290 22.734040 -0.000004 -0.000004 0.000001 6.882260 2.840034 -61.140507 8.247975 7.640057 -89.897871 2.146161 8.173415 -41.827798 -0.000002 0.000002 0.000002 -2.345561 4.688883 -62.655245 8.754159 9.897094 -87.051232 1.995364 4.929281 -37.483368 -0.000003 0.000000 -0.000001 -9.042509 10.045631 -60.766205 8.523945 9.508877 -66.892953 6.576520 9.896796 -70.385086 0.000002 0.000003 0.000001 -3.766286 5.416462 8.450637 0.000000 0.000000 0.000000 10.628854 -12.718386 54.218209 -22.307121 38.229351 17.808321 -24.218150 10.776485 -16.612398 -1.948314 -4.635279 9.073842 2.440901 -21.283373 -8.070737 -4.911597 13.430828 5.634761 -0.000003 0.000001 0.000002 0.075706 -0.754062 8.595591 0.259685 -1.461748 14.669949 0.078335 -3.689424 8.341185 0.000001 0.000000 -0.000000 0.518901 -7.250101 10.225995 2.241027 -5.604559 34.164569 0.123180 -0.029584 4.989676 0.000001 0.000000 0.000000 2.292866 -11.852352 12.948997 2.872655 -5.404297 38.305132 2.315167 -5.990432 32.397360 0.000000 -0.000001 -0.000003 -40.243901 4.035991 36.815427 46.160454 -12.488758 -0.032916 -8.865250 0.994685 -25.450052 -1.836440 -0.000619 -0.000033 -0.000000 0.000000 0.000000 -27.247088 -15.397077 -43.954501 43.834771 13.371614 -2.668944 -20.030305 -6.292075 31.084331 -0.001646 -0.000370 0.000017 0.000000 -0.000000 0.000000 
